{
  "accessors": [
    {
      "bufferView": 2,
      "componentType": 5126,
      "count": 9716,
      "max": [
        1.2214599847793579,
        0.80294597148895264,
        3.5009980201721191
      ],
      "min": [
        -1.7523430585861206,
        -0.71390897035598755,
        -0.054885998368263245
      ],
      "type": "VEC3"
    },
    {
      "bufferView": 2,
      "byteOffset": 116592,
      "componentType": 5126,
      "count": 9716,
      "max": [
        0.99993354082107544,
        0.99995511770248413,
        0.99996709823608398
      ],
      "min": [
        -0.99920910596847534,
        -0.9999808669090271,
        -0.99999064207077026
      ],
      "type": "VEC3"
    },
    {
      "bufferView": 1,
      "componentType": 5126,
      "count": 9716,
      "max": [
        0.98789900541305542,
        0.83015900850296021
      ],
      "min": [
        0.60850399732589722,
        0.015971999615430832
      ],
      "type": "VEC2"
    },
    {
      "bufferView": 0,
      "componentType": 5125,
      "count": 51912,
      "max": [
        9715
      ],
      "min": [
        0
      ],
      "type": "SCALAR"
    },
    {
      "bufferView": 2,
      "byteOffset": 233184,
      "componentType": 5126,
      "count": 5032,
      "max": [
        1.7283610105514526,
        0.85038101673126221,
        3.4428360462188721
      ],
      "min": [
        -1.919234037399292,
        -0.78296899795532227,
        -0.28528898954391479
      ],
      "type": "VEC3"
    },
    {
      "bufferView": 2,
      "byteOffset": 293568,
      "componentType": 5126,
      "count": 5032,
      "max": [
        0.99999785423278809,
        0.99950438737869263,
        0.99999910593032837
      ],
      "min": [
        -0.99999845027923584,
        -0.99941974878311157,
        -0.99997663497924805
      ],
      "type": "VEC3"
    },
    {
      "bufferView": 1,
      "byteOffset": 77728,
      "componentType": 5126,
      "count": 5032,
      "max": [
        0.98789900541305542,
        0.83015900850296021
      ],
      "min": [
        0.60850399732589722,
        0.015971999615430832
      ],
      "type": "VEC2"
    },
    {
      "bufferView": 0,
      "byteOffset": 207648,
      "componentType": 5125,
      "count": 26472,
      "max": [
        5031
      ],
      "min": [
        0
      ],
      "type": "SCALAR"
    },
    {
      "bufferView": 2,
      "byteOffset": 353952,
      "componentType": 5126,
      "count": 166,
      "max": [
        0.79326701164245605,
        0.9174339771270752,
        0.16586500406265259
      ],
      "min": [
        -0.87123602628707886,
        -0.74707001447677612,
        0.14206899702548981
      ],
      "type": "VEC3"
    },
    {
      "bufferView": 2,
      "byteOffset": 355944,
      "componentType": 5126,
      "count": 166,
      "max": [
        0.99834901094436646,
        0.99834936857223511,
        1
      ],
      "min": [
        -0.99834954738616943,
        -0.99834936857223511,
        -1
      ],
      "type": "VEC3"
    },
    {
      "bufferView": 1,
      "byteOffset": 117984,
      "componentType": 5126,
      "count": 166,
      "max": [
        0.65625,
        1
      ],
      "min": [
        0.34375,
        -0
      ],
      "type": "VEC2"
    },
    {
      "bufferView": 0,
      "byteOffset": 313536,
      "componentType": 5125,
      "count": 720,
      "max": [
        165
      ],
      "min": [
        0
      ],
      "type": "SCALAR"
    },
    {
      "bufferView": 2,
      "byteOffset": 357936,
      "componentType": 5126,
      "count": 9716,
      "max": [
        1.7205259799957275,
        0.84708601236343384,
        3.4362630844116211
      ],
      "min": [
        -1.9140219688415527,
        -0.76074099540710449,
        -0.28139999508857727
      ],
      "type": "VEC3"
    },
    {
      "bufferView": 2,
      "byteOffset": 474528,
      "componentType": 5126,
      "count": 9716,
      "max": [
        0.99999845027923584,
        0.9999808669090271,
        0.99999064207077026
      ],
      "min": [
        -0.99999785423278809,
        -0.99950438737869263,
        -0.99998962879180908
      ],
      "type": "VEC3"
    },
    {
      "bufferView": 1,
      "byteOffset": 119312,
      "componentType": 5126,
      "count": 9716,
      "max": [
        0.98789900541305542,
        0.83015900850296021
      ],
      "min": [
        0.60850399732589722,
        0.015971999615430832
      ],
      "type": "VEC2"
    },
    {
      "bufferView": 0,
      "byteOffset": 316416,
      "componentType": 5125,
      "count": 51912,
      "max": [
        9715
      ],
      "min": [
        0
      ],
      "type": "SCALAR"
    },
    {
      "bufferView": 2,
      "byteOffset": 591120,
      "componentType": 5126,
      "count": 5031,
      "max": [
        1.5486550331115723,
        0.82319897413253784,
        3.4943840503692627
      ],
      "min": [
        -1.7306150197982788,
        -0.77760201692581177,
        -0.1916780024766922
      ],
      "type": "VEC3"
    },
    {
      "bufferView": 2,
      "byteOffset": 651492,
      "componentType": 5126,
      "count": 5031,
      "max": [
        0.99999845027923584,
        0.99950236082077026,
        0.9999772310256958
      ],
      "min": [
        -0.99993354082107544,
        -0.99995511770248413,
        -0.99999910593032837
      ],
      "type": "VEC3"
    },
    {
      "bufferView": 1,
      "byteOffset": 197040,
      "componentType": 5126,
      "count": 5031,
      "max": [
        0.98789900541305542,
        0.83015900850296021
      ],
      "min": [
        0.60850399732589722,
        0.015971999615430832
      ],
      "type": "VEC2"
    },
    {
      "bufferView": 0,
      "byteOffset": 524064,
      "componentType": 5125,
      "count": 26472,
      "max": [
        5030
      ],
      "min": [
        0
      ],
      "type": "SCALAR"
    },
    {
      "bufferView": 2,
      "byteOffset": 711864,
      "componentType": 5126,
      "count": 3802,
      "max": [
        1.1198300123214722,
        1.2439960241317749,
        3.5743069648742676
      ],
      "min": [
        -1.2410190105438232,
        -1.0736320018768311,
        -0.023702999576926231
      ],
      "type": "VEC3"
    },
    {
      "bufferView": 2,
      "byteOffset": 757488,
      "componentType": 5126,
      "count": 3802,
      "max": [
        0.99971789121627808,
        0.99975413084030151,
        1
      ],
      "min": [
        -0.99920165538787842,
        -0.99975132942199707,
        -1
      ],
      "type": "VEC3"
    },
    {
      "bufferView": 1,
      "byteOffset": 237288,
      "componentType": 5126,
      "count": 3802,
      "max": [
        0.98386001586914062,
        0.94499701261520386
      ],
      "min": [
        0.013491000048816204,
        0.0064429999329149723
      ],
      "type": "VEC2"
    },
    {
      "bufferView": 0,
      "byteOffset": 629952,
      "componentType": 5125,
      "count": 20400,
      "max": [
        3801
      ],
      "min": [
        0
      ],
      "type": "SCALAR"
    },
    {
      "bufferView": 2,
      "byteOffset": 803112,
      "componentType": 5126,
      "count": 3802,
      "max": [
        1.1026320457458496,
        1.2267980575561523,
        3.561305046081543
      ],
      "min": [
        -1.2287060022354126,
        -1.0564340353012085,
        0
      ],
      "type": "VEC3"
    },
    {
      "bufferView": 2,
      "byteOffset": 848736,
      "componentType": 5126,
      "count": 3802,
      "max": [
        0.99986410140991211,
        0.99998313188552856,
        1
      ],
      "min": [
        -0.99920123815536499,
        -0.99998313188552856,
        -1
      ],
      "type": "VEC3"
    },
    {
      "bufferView": 1,
      "byteOffset": 267704,
      "componentType": 5126,
      "count": 3802,
      "max": [
        0.98386001586914062,
        0.94499701261520386
      ],
      "min": [
        0.013491000048816204,
        0.0064429999329149723
      ],
      "type": "VEC2"
    },
    {
      "bufferView": 0,
      "byteOffset": 711552,
      "componentType": 5125,
      "count": 20400,
      "max": [
        3801
      ],
      "min": [
        0
      ],
      "type": "SCALAR"
    }
  ],
  "asset": {
    "extras": {
      "author": "Lisayra (https://sketchfab.com/lisayra)",
      "license": "CC-BY-4.0 (http://creativecommons.org/licenses/by/4.0/)",
      "source": "https://sketchfab.com/3d-models/jar-of-hearts-678bc5e8d88240678e929391e94d593a",
      "title": "Jar of Hearts"
    },
    "generator": "Sketchfab-9.12.0",
    "version": "2.0"
  },
  "bufferViews": [
    {
      "buffer": 0,
      "byteLength": 793152,
      "byteOffset": 0,
      "name": "floatBufferViews",
      "target": 34963
    },
    {
      "buffer": 0,
      "byteLength": 298120,
      "byteOffset": 793152,
      "byteStride": 8,
      "name": "floatBufferViews",
      "target": 34962
    },
    {
      "buffer": 0,
      "byteLength": 894360,
      "byteOffset": 1091272,
      "byteStride": 12,
      "name": "floatBufferViews",
      "target": 34962
    }
  ],
  "buffers": [
    {
      "byteLength": 1985632,
      "uri": "scene.bin"
    }
  ],
  "extensionsUsed": [
    "KHR_materials_unlit"
  ],
  "images": [
    {
      "uri": "textures/lambert2SG_baseColor.png"
    }
  ],
  "materials": [
    {
      "doubleSided": false,
      "extensions": {
        "KHR_materials_unlit": {}
      },
      "name": "Heart_UVlambert2SG",
      "pbrMetallicRoughness": {
        "baseColorFactor": [
          0,
          0,
          0,
          1
        ],
        "metallicFactor": 0,
        "roughnessFactor": 1
      }
    },
    {
      "doubleSided": true,
      "emissiveFactor": [
        0.98778853897615382,
        0.36476051050627878,
        0.45959419743188179
      ],
      "extensions": {
        "KHR_materials_unlit": {}
      },
      "name": "initialShadingGroup",
      "pbrMetallicRoughness": {
        "baseColorFactor": [
          0,
          0,
          0,
          1
        ],
        "metallicFactor": 0,
        "roughnessFactor": 1
      }
    },
    {
      "doubleSided": true,
      "emissiveFactor": [
        0.92709493239999996,
        0.92709493239999996,
        0.92709493239999996
      ],
      "emissiveTexture": {
        "index": 0,
        "texCoord": 0
      },
      "extensions": {
        "KHR_materials_unlit": {}
      },
      "name": "lambert2SG",
      "pbrMetallicRoughness": {
        "baseColorFactor": [
          0.32334519810000001,
          0.32334519810000001,
          0.32334519810000001,
          1
        ],
        "baseColorTexture": {
          "index": 0,
          "texCoord": 0
        },
        "metallicFactor": 0,
        "roughnessFactor": 1
      }
    },
    {
      "alphaMode": "BLEND",
      "doubleSided": false,
      "extensions": {
        "KHR_materials_unlit": {}
      },
      "name": "lambert3SG",
      "pbrMetallicRoughness": {
        "baseColorFactor": [
          0,
          0,
          0,
          0.91814254210000001
        ],
        "metallicFactor": 0,
        "roughnessFactor": 1
      }
    },
    {
      "alphaMode": "BLEND",
      "doubleSided": true,
      "extensions": {
        "KHR_materials_unlit": {}
      },
      "name": "lambert4SG",
      "pbrMetallicRoughness": {
        "baseColorFactor": [
          0.47348166959999982,
          0.095037192199999898,
          1,
          0.062362689999999998
        ],
        "metallicFactor": 0,
        "roughnessFactor": 1
      }
    }
  ],
  "meshes": [
    {
      "primitives": [
        {
          "attributes": {
            "NORMAL": 1,
            "POSITION": 0,
            "TEXCOORD_0": 2
          },
          "indices": 3,
          "material": 0,
          "mode": 4
        }
      ]
    },
    {
      "primitives": [
        {
          "attributes": {
            "NORMAL": 5,
            "POSITION": 4,
            "TEXCOORD_0": 6
          },
          "indices": 7,
          "material": 0,
          "mode": 4
        }
      ]
    },
    {
      "primitives": [
        {
          "attributes": {
            "NORMAL": 9,
            "POSITION": 8,
            "TEXCOORD_0": 10
          },
          "indices": 11,
          "material": 1,
          "mode": 4
        }
      ]
    },
    {
      "primitives": [
        {
          "attributes": {
            "NORMAL": 13,
            "POSITION": 12,
            "TEXCOORD_0": 14
          },
          "indices": 15,
          "material": 2,
          "mode": 4
        }
      ]
    },
    {
      "primitives": [
        {
          "attributes": {
            "NORMAL": 17,
            "POSITION": 16,
            "TEXCOORD_0": 18
          },
          "indices": 19,
          "material": 2,
          "mode": 4
        }
      ]
    },
    {
      "primitives": [
        {
          "attributes": {
            "NORMAL": 21,
            "POSITION": 20,
            "TEXCOORD_0": 22
          },
          "indices": 23,
          "material": 3,
          "mode": 4
        }
      ]
    },
    {
      "primitives": [
        {
          "attributes": {
            "NORMAL": 25,
            "POSITION": 24,
            "TEXCOORD_0": 26
          },
          "indices": 27,
          "material": 4,
          "mode": 4
        }
      ]
    }
  ],
  "nodes": [
    {
      "children": [
        1
      ],
      "name": "RootNode (gltf orientation matrix)",
      "rotation": [
        -0.70710678118654746,
        -0,
        -0,
        0.70710678118654757
      ]
    },
    {
      "children": [
        2
      ],
      "name": "RootNode (model correction matrix)"
    },
    {
      "children": [
        3,
        4,
        5,
        6,
        7,
        8,
        9
      ],
      "name": "Probnik2.obj.cleaner.materialmerger.gles"
    },
    {
      "mesh": 0,
      "name": ""
    },
    {
      "mesh": 1,
      "name": ""
    },
    {
      "mesh": 2,
      "name": ""
    },
    {
      "mesh": 3,
      "name": ""
    },
    {
      "mesh": 4,
      "name": ""
    },
    {
      "mesh": 5,
      "name": ""
    },
    {
      "mesh": 6,
      "name": ""
    }
  ],
  "samplers": [
    {
      "magFilter": 9729,
      "minFilter": 9987,
      "wrapS": 10497,
      "wrapT": 10497
    }
  ],
  "scene": 0,
  "scenes": [
    {
      "name": "OSG_Scene",
      "nodes": [
        0
      ]
    }
  ],
  "textures": [
    {
      "sampler": 0,
      "source": 0
    }
  ]
}

