{
  "accessors": [
    {
      "bufferView": 2,
      "componentType": 5126,
      "count": 65532,
      "max": [
        39.18852615356445,
        48.9787712097168,
        12.988574981689453
      ],
      "min": [
        -36.4693603515625,
        30.645366668701172,
        -45.90144348144531
      ],
      "type": "VEC3"
    },
    {
      "bufferView": 2,
      "byteOffset": 786384,
      "componentType": 5126,
      "count": 65532,
      "max": [
        0.9999980926513672,
        0.9999614953994751,
        0.9999991059303284
      ],
      "min": [
        -0.9999986290931702,
        -0.9999939799308777,
        -0.9999993443489075
      ],
      "type": "VEC3"
    },
    {
      "bufferView": 1,
      "componentType": 5126,
      "count": 65532,
      "max": [
        0.9995030164718628,
        0.9998679757118225
      ],
      "min": [
        0.0006479999865405262,
        0.0010130000300705433
      ],
      "type": "VEC2"
    },
    {
      "bufferView": 0,
      "componentType": 5125,
      "count": 311553,
      "type": "SCALAR"
    },
    {
      "bufferView": 2,
      "byteOffset": 1572768,
      "componentType": 5126,
      "count": 65532,
      "max": [
        39.66187286376953,
        48.8814811706543,
        13.162810325622559
      ],
      "min": [
        -35.98174285888672,
        30.56085205078125,
        -45.99952697753906
      ],
      "type": "VEC3"
    },
    {
      "bufferView": 2,
      "byteOffset": 2359152,
      "componentType": 5126,
      "count": 65532,
      "max": [
        0.9999982118606567,
        0.9999601244926453,
        0.9999996423721313
      ],
      "min": [
        -0.9999993443489075,
        -0.9999996423721313,
        -0.9999987483024597
      ],
      "type": "VEC3"
    },
    {
      "bufferView": 1,
      "byteOffset": 524256,
      "componentType": 5126,
      "count": 65532,
      "max": [
        0.9992600083351135,
        0.999576985836029
      ],
      "min": [
        0.0026000000070780516,
        0.0006479999865405262
      ],
      "type": "VEC2"
    },
    {
      "bufferView": 0,
      "byteOffset": 1246212,
      "componentType": 5125,
      "count": 306861,
      "type": "SCALAR"
    },
    {
      "bufferView": 2,
      "byteOffset": 3145536,
      "componentType": 5126,
      "count": 65532,
      "max": [
        39.81990432739258,
        48.857845306396484,
        13.072901725769043
      ],
      "min": [
        -36.60282897949219,
        30.66938591003418,
        -44.93742752075195
      ],
      "type": "VEC3"
    },
    {
      "bufferView": 2,
      "byteOffset": 3931920,
      "componentType": 5126,
      "count": 65532,
      "max": [
        0.9999918937683105,
        0.9999978542327881,
        0.9999996423721313
      ],
      "min": [
        -0.9999996423721313,
        -0.9999997615814209,
        -0.9999979734420776
      ],
      "type": "VEC3"
    },
    {
      "bufferView": 1,
      "byteOffset": 1048512,
      "componentType": 5126,
      "count": 65532,
      "max": [
        0.9932720065116882,
        0.9990059733390808
      ],
      "min": [
        0.0028359999414533377,
        0.01406100019812584
      ],
      "type": "VEC2"
    },
    {
      "bufferView": 0,
      "byteOffset": 2473656,
      "componentType": 5125,
      "count": 308610,
      "type": "SCALAR"
    },
    {
      "bufferView": 2,
      "byteOffset": 4718304,
      "componentType": 5126,
      "count": 65532,
      "max": [
        39.090675354003906,
        48.697628021240234,
        13.085936546325684
      ],
      "min": [
        -36.56740188598633,
        30.64531135559082,
        -45.99649429321289
      ],
      "type": "VEC3"
    },
    {
      "bufferView": 2,
      "byteOffset": 5504688,
      "componentType": 5126,
      "count": 65532,
      "max": [
        0.9999998807907104,
        0.9999665021896362,
        0.9999995827674866
      ],
      "min": [
        -0.9999992251396179,
        -0.9999993443489075,
        -0.9999956488609314
      ],
      "type": "VEC3"
    },
    {
      "bufferView": 1,
      "byteOffset": 1572768,
      "componentType": 5126,
      "count": 65532,
      "max": [
        0.9989979863166809,
        0.9978839755058289
      ],
      "min": [
        0.001471000025048852,
        1.4999999621068127e-05
      ],
      "type": "VEC2"
    },
    {
      "bufferView": 0,
      "byteOffset": 3708096,
      "componentType": 5125,
      "count": 304626,
      "type": "SCALAR"
    },
    {
      "bufferView": 2,
      "byteOffset": 6291072,
      "componentType": 5126,
      "count": 65532,
      "max": [
        39.75087356567383,
        48.961952209472656,
        12.595874786376953
      ],
      "min": [
        -36.53085708618164,
        30.548961639404297,
        -45.75151062011719
      ],
      "type": "VEC3"
    },
    {
      "bufferView": 2,
      "byteOffset": 7077456,
      "componentType": 5126,
      "count": 65532,
      "max": [
        0.9999982118606567,
        0.9999451041221619,
        0.9999998807907104
      ],
      "min": [
        -0.9999998807907104,
        -0.9999997615814209,
        -0.9999992251396179
      ],
      "type": "VEC3"
    },
    {
      "bufferView": 1,
      "byteOffset": 2097024,
      "componentType": 5126,
      "count": 65532,
      "max": [
        0.9998769760131836,
        0.9984840154647827
      ],
      "min": [
        0.0033279999624937773,
        0.0001449999981559813
      ],
      "type": "VEC2"
    },
    {
      "bufferView": 0,
      "byteOffset": 4926600,
      "componentType": 5125,
      "count": 306456,
      "type": "SCALAR"
    },
    {
      "bufferView": 2,
      "byteOffset": 7863840,
      "componentType": 5126,
      "count": 65532,
      "max": [
        39.33467102050781,
        48.961952209472656,
        12.996442794799805
      ],
      "min": [
        -36.04667663574219,
        30.529766082763672,
        -45.74633026123047
      ],
      "type": "VEC3"
    },
    {
      "bufferView": 2,
      "byteOffset": 8650224,
      "componentType": 5126,
      "count": 65532,
      "max": [
        0.9999969005584717,
        0.9999978542327881,
        0.9999998807907104
      ],
      "min": [
        -0.9999996423721313,
        -0.9999993443489075,
        -0.9999943375587463
      ],
      "type": "VEC3"
    },
    {
      "bufferView": 1,
      "byteOffset": 2621280,
      "componentType": 5126,
      "count": 65532,
      "max": [
        0.9999489784240723,
        0.9999819993972778
      ],
      "min": [
        0.0006370000191964209,
        2.099999983329326e-05
      ],
      "type": "VEC2"
    },
    {
      "bufferView": 0,
      "byteOffset": 6152424,
      "componentType": 5125,
      "count": 303753,
      "type": "SCALAR"
    },
    {
      "bufferView": 2,
      "byteOffset": 9436608,
      "componentType": 5126,
      "count": 65532,
      "max": [
        39.67762756347656,
        48.917335510253906,
        12.904908180236816
      ],
      "min": [
        -36.472381591796875,
        30.619998931884766,
        -45.78038787841797
      ],
      "type": "VEC3"
    },
    {
      "bufferView": 2,
      "byteOffset": 10222992,
      "componentType": 5126,
      "count": 65532,
      "max": [
        0.9999989867210388,
        0.999980092048645,
        0.9999996423721313
      ],
      "min": [
        -0.9999998807907104,
        -0.9999998807907104,
        -0.9999925494194031
      ],
      "type": "VEC3"
    },
    {
      "bufferView": 1,
      "byteOffset": 3145536,
      "componentType": 5126,
      "count": 65532,
      "max": [
        0.9998540282249451,
        0.9999920129776001
      ],
      "min": [
        0.0002500000118743628,
        3.999999989900971e-06
      ],
      "type": "VEC2"
    },
    {
      "bufferView": 0,
      "byteOffset": 7367436,
      "componentType": 5125,
      "count": 297789,
      "type": "SCALAR"
    },
    {
      "bufferView": 2,
      "byteOffset": 11009376,
      "componentType": 5126,
      "count": 65532,
      "max": [
        39.65081024169922,
        48.94114303588867,
        12.933692932128906
      ],
      "min": [
        -36.56203079223633,
        30.608545303344727,
        -45.69141387939453
      ],
      "type": "VEC3"
    },
    {
      "bufferView": 2,
      "byteOffset": 11795760,
      "componentType": 5126,
      "count": 65532,
      "max": [
        0.9999998807907104,
        0.9999982118606567,
        0.9999998807907104
      ],
      "min": [
        -0.9999997615814209,
        -0.9999998807907104,
        -0.9999946355819702
      ],
      "type": "VEC3"
    },
    {
      "bufferView": 1,
      "byteOffset": 3669792,
      "componentType": 5126,
      "count": 65532,
      "max": [
        0.9998170137405396,
        0.9999949932098389
      ],
      "min": [
        0.00017600000137463212,
        3.000000106112566e-06
      ],
      "type": "VEC2"
    },
    {
      "bufferView": 0,
      "byteOffset": 8558592,
      "componentType": 5125,
      "count": 279852,
      "type": "SCALAR"
    },
    {
      "bufferView": 2,
      "byteOffset": 12582144,
      "componentType": 5126,
      "count": 65532,
      "max": [
        39.689151763916016,
        48.79070281982422,
        13.059904098510742
      ],
      "min": [
        -36.60282897949219,
        30.557458877563477,
        -45.61579132080078
      ],
      "type": "VEC3"
    },
    {
      "bufferView": 2,
      "byteOffset": 13368528,
      "componentType": 5126,
      "count": 65532,
      "max": [
        0.999997615814209,
        0.9999977350234985,
        0.9999998807907104
      ],
      "min": [
        -0.9999992251396179,
        -0.9999995231628418,
        -0.9999946355819702
      ],
      "type": "VEC3"
    },
    {
      "bufferView": 1,
      "byteOffset": 4194048,
      "componentType": 5126,
      "count": 65532,
      "max": [
        0.9999740123748779,
        0.9999799728393555
      ],
      "min": [
        0.00014600000577047467,
        1.9999999949504854e-06
      ],
      "type": "VEC2"
    },
    {
      "bufferView": 0,
      "byteOffset": 9678000,
      "componentType": 5125,
      "count": 244590,
      "type": "SCALAR"
    },
    {
      "bufferView": 2,
      "byteOffset": 14154912,
      "componentType": 5126,
      "count": 65532,
      "max": [
        39.71516036987305,
        48.9787712097168,
        13.112621307373047
      ],
      "min": [
        -36.58268356323242,
        30.57524871826172,
        -45.88100814819336
      ],
      "type": "VEC3"
    },
    {
      "bufferView": 2,
      "byteOffset": 14941296,
      "componentType": 5126,
      "count": 65532,
      "max": [
        0.9999933838844299,
        0.9999895691871643,
        0.9999988675117493
      ],
      "min": [
        -0.9999979734420776,
        -0.9999977350234985,
        -0.9999987483024597
      ],
      "type": "VEC3"
    },
    {
      "bufferView": 1,
      "byteOffset": 4718304,
      "componentType": 5126,
      "count": 65532,
      "max": [
        0.999987006187439,
        0.9999809861183167
      ],
      "min": [
        5.8000001445179805e-05,
        1.9999999949504854e-06
      ],
      "type": "VEC2"
    },
    {
      "bufferView": 0,
      "byteOffset": 10656360,
      "componentType": 5125,
      "count": 199875,
      "type": "SCALAR"
    },
    {
      "bufferView": 2,
      "byteOffset": 15727680,
      "componentType": 5126,
      "count": 50936,
      "max": [
        39.76155090332031,
        48.8781852722168,
        13.162810325622559
      ],
      "min": [
        -36.41046142578125,
        30.55914878845215,
        -45.933841705322266
      ],
      "type": "VEC3"
    },
    {
      "bufferView": 2,
      "byteOffset": 16338912,
      "componentType": 5126,
      "count": 50936,
      "max": [
        0.9999971389770508,
        0.9999929070472717,
        0.9999979734420776
      ],
      "min": [
        -0.9999938607215881,
        -0.9999980926513672,
        -0.9999915361404419
      ],
      "type": "VEC3"
    },
    {
      "bufferView": 1,
      "byteOffset": 5242560,
      "componentType": 5126,
      "count": 50936,
      "max": [
        0.999987006187439,
        0.9999970197677612
      ],
      "min": [
        0.0,
        9.999999974752427e-07
      ],
      "type": "VEC2"
    },
    {
      "bufferView": 0,
      "byteOffset": 11455860,
      "componentType": 5125,
      "count": 136461,
      "type": "SCALAR"
    }
  ],
  "asset": {
    "extras": {
      "author": "Katie Wolfe (https://sketchfab.com/katiewolfe)",
      "license": "CC-BY-4.0 (http://creativecommons.org/licenses/by/4.0/)",
      "source": "https://sketchfab.com/3d-models/graffiti-alley-9ae97131c3d44cffaf0113d48a8798b3",
      "title": "Graffiti Alley"
    },
    "generator": "Sketchfab-11.33.0",
    "version": "2.0"
  },
  "bufferViews": [
    {
      "buffer": 0,
      "byteLength": 12001704,
      "name": "floatBufferViews",
      "target": 34963
    },
    {
      "buffer": 0,
      "byteLength": 5650048,
      "byteOffset": 12001704,
      "byteStride": 8,
      "name": "floatBufferViews",
      "target": 34962
    },
    {
      "buffer": 0,
      "byteLength": 16950144,
      "byteOffset": 17651752,
      "byteStride": 12,
      "name": "floatBufferViews",
      "target": 34962
    }
  ],
  "buffers": [
    {
      "byteLength": 34601896,
      "uri": "scene.bin"
    }
  ],
  "images": [
    {
      "uri": "textures/graffiti_alley-metashape_uvs-m_baseColor.jpeg"
    }
  ],
  "materials": [
    {
      "name": "graffiti_alley-metashape_uvs-m",
      "pbrMetallicRoughness": {
        "baseColorTexture": {
          "index": 0
        },
        "metallicFactor": 0.0
      }
    }
  ],
  "meshes": [
    {
      "name": "Object_0",
      "primitives": [
        {
          "attributes": {
            "NORMAL": 1,
            "POSITION": 0,
            "TEXCOORD_0": 2
          },
          "indices": 3,
          "material": 0,
          "mode": 4
        }
      ]
    },
    {
      "name": "Object_1",
      "primitives": [
        {
          "attributes": {
            "NORMAL": 5,
            "POSITION": 4,
            "TEXCOORD_0": 6
          },
          "indices": 7,
          "material": 0,
          "mode": 4
        }
      ]
    },
    {
      "name": "Object_2",
      "primitives": [
        {
          "attributes": {
            "NORMAL": 9,
            "POSITION": 8,
            "TEXCOORD_0": 10
          },
          "indices": 11,
          "material": 0,
          "mode": 4
        }
      ]
    },
    {
      "name": "Object_3",
      "primitives": [
        {
          "attributes": {
            "NORMAL": 13,
            "POSITION": 12,
            "TEXCOORD_0": 14
          },
          "indices": 15,
          "material": 0,
          "mode": 4
        }
      ]
    },
    {
      "name": "Object_4",
      "primitives": [
        {
          "attributes": {
            "NORMAL": 17,
            "POSITION": 16,
            "TEXCOORD_0": 18
          },
          "indices": 19,
          "material": 0,
          "mode": 4
        }
      ]
    },
    {
      "name": "Object_5",
      "primitives": [
        {
          "attributes": {
            "NORMAL": 21,
            "POSITION": 20,
            "TEXCOORD_0": 22
          },
          "indices": 23,
          "material": 0,
          "mode": 4
        }
      ]
    },
    {
      "name": "Object_6",
      "primitives": [
        {
          "attributes": {
            "NORMAL": 25,
            "POSITION": 24,
            "TEXCOORD_0": 26
          },
          "indices": 27,
          "material": 0,
          "mode": 4
        }
      ]
    },
    {
      "name": "Object_7",
      "primitives": [
        {
          "attributes": {
            "NORMAL": 29,
            "POSITION": 28,
            "TEXCOORD_0": 30
          },
          "indices": 31,
          "material": 0,
          "mode": 4
        }
      ]
    },
    {
      "name": "Object_8",
      "primitives": [
        {
          "attributes": {
            "NORMAL": 33,
            "POSITION": 32,
            "TEXCOORD_0": 34
          },
          "indices": 35,
          "material": 0,
          "mode": 4
        }
      ]
    },
    {
      "name": "Object_9",
      "primitives": [
        {
          "attributes": {
            "NORMAL": 37,
            "POSITION": 36,
            "TEXCOORD_0": 38
          },
          "indices": 39,
          "material": 0,
          "mode": 4
        }
      ]
    },
    {
      "name": "Object_10",
      "primitives": [
        {
          "attributes": {
            "NORMAL": 41,
            "POSITION": 40,
            "TEXCOORD_0": 42
          },
          "indices": 43,
          "material": 0,
          "mode": 4
        }
      ]
    }
  ],
  "nodes": [
    {
      "children": [
        1
      ],
      "matrix": [
        -0.9996105432510376,
        0.027779564261436462,
        0.0026574272196739973,
        0.0,
        -0.027874963358044624,
        -0.9984650015830994,
        -0.04785994812846206,
        0.0,
        0.001323819626122713,
        -0.04791538417339347,
        0.9988505244255066,
        0.0,
        4.346353054046631,
        22.44347190856934,
        -21.45638275146484,
        1.0
      ],
      "name": "Sketchfab_model"
    },
    {
      "children": [
        2,
        3,
        4,
        5,
        6,
        7,
        8,
        9,
        10,
        11,
        12
      ],
      "name": "graffiti_alley-metashape_uvs-m.obj.cleaner.materialmerger.gles"
    },
    {
      "mesh": 0,
      "name": "Object_2"
    },
    {
      "mesh": 1,
      "name": "Object_3"
    },
    {
      "mesh": 2,
      "name": "Object_4"
    },
    {
      "mesh": 3,
      "name": "Object_5"
    },
    {
      "mesh": 4,
      "name": "Object_6"
    },
    {
      "mesh": 5,
      "name": "Object_7"
    },
    {
      "mesh": 6,
      "name": "Object_8"
    },
    {
      "mesh": 7,
      "name": "Object_9"
    },
    {
      "mesh": 8,
      "name": "Object_10"
    },
    {
      "mesh": 9,
      "name": "Object_11"
    },
    {
      "mesh": 10,
      "name": "Object_12"
    }
  ],
  "samplers": [
    {
      "magFilter": 9729,
      "minFilter": 9987,
      "wrapS": 10497,
      "wrapT": 10497
    }
  ],
  "scene": 0,
  "scenes": [
    {
      "name": "Sketchfab_Scene",
      "nodes": [
        0
      ]
    }
  ],
  "textures": [
    {
      "sampler": 0,
      "source": 0
    }
  ]
}
